<svg width="208" height="91" viewBox="0 0 208 91" fill="none" xmlns="http://www.w3.org/2000/svg">
<path d="M44.9474 38.7646C44.9474 38.9376 44.8177 39.0587 44.6447 39.0587H41.6692C41.4962 39.0587 41.3664 38.9289 41.3664 38.7646V22.7194C41.3664 22.5464 41.4962 22.4253 41.6692 22.4253H44.6447C44.8177 22.4253 44.9474 22.5551 44.9474 22.7194V38.7646ZM57.3164 22.1659C60.4649 22.1659 62.5755 23.5671 63.8729 25.297V0.584904C63.8729 0.117821 63.3107 -0.176268 62.9214 0.117821L31.8431 22.4253H32.6649C35.8998 22.4253 37.5346 24.458 37.5346 26.655C37.5346 28.3936 36.6264 29.6565 35.3809 30.2101C35.1646 30.2966 35.1646 30.5906 35.3809 30.6771C36.7994 31.274 37.8374 32.7531 37.8374 34.5262C37.8374 37.0693 36.1593 39.0587 32.9244 39.0587H24.0844C23.9114 39.0587 23.7384 38.9289 23.7384 38.7213V28.2206L0.583203 44.8626C0.193968 45.2 0.366961 45.7968 0.885942 45.7968H63.3107C63.6134 45.7968 63.8297 45.5892 63.8297 45.2864V36.8617C62.1516 38.384 59.9459 39.3614 57.2732 39.3614C52.2737 39.3614 48.217 35.9707 48.217 30.7723C48.2602 25.5219 52.3515 22.1832 57.3164 22.1832V22.1659Z" fill="white"/>
<path d="M177.771 30.6773C177.771 25.5567 181.525 22.0881 186.352 22.0881C189.5 22.0881 191.524 23.6537 192.735 25.5567C192.822 25.6864 192.779 25.894 192.606 25.9372L190.668 26.9493C190.538 27.0358 190.365 26.9925 190.322 26.8628C189.5 25.5913 187.995 24.6657 186.352 24.6657C183.117 24.6657 180.704 27.1655 180.704 30.6773C180.704 34.189 183.117 36.6888 186.352 36.6888C187.987 36.6888 189.5 35.7546 190.322 34.4918C190.409 34.362 190.538 34.3188 190.668 34.4053L192.606 35.3827C192.779 35.4692 192.822 35.6335 192.735 35.8065C191.481 37.7095 189.457 39.3183 186.352 39.3183C181.525 39.275 177.771 35.8065 177.771 30.6859V30.6773Z" fill="white"/>
<path d="M66.5449 30.7637C66.5449 25.6431 70.2989 22.1746 75.1254 22.1746C78.2739 22.1746 80.2979 23.7402 81.5089 25.6431C81.5954 25.7728 81.5521 25.9804 81.3791 26.0237L79.4416 27.0357C79.3119 27.1222 79.1389 27.0789 79.0956 26.9492C78.2739 25.6777 76.7688 24.7522 75.1254 24.7522C71.8904 24.7522 69.4772 27.2519 69.4772 30.7637C69.4772 34.2755 71.8904 36.7752 75.1254 36.7752C76.7602 36.7752 78.2739 35.8411 79.0956 34.5782C79.1821 34.4485 79.3119 34.4052 79.4416 34.4917L81.3791 35.4691C81.5521 35.5556 81.5954 35.72 81.5089 35.893C80.2547 37.7959 78.2306 39.4047 75.1254 39.4047C70.2989 39.3615 66.5449 35.8497 66.5449 30.7723V30.7637Z" fill="white"/>
<path d="M57.3163 25.3054C58.9511 25.3054 60.3351 26.1531 61.1568 27.2083C61.2433 27.3381 61.4595 27.4159 61.6325 27.3813L63.916 26.1531V29.9243H56.806C56.633 29.9243 56.46 30.0541 56.46 30.2617V32.6317C56.46 32.8047 56.5898 32.969 56.806 32.969H60.6465C60.7762 32.969 60.906 33.0988 60.906 33.2199V34.8287C60.906 34.9152 60.8627 35.0017 60.8195 35.0363C60.0842 35.6331 58.7522 36.2213 57.325 36.2213C54.2198 36.2213 51.9795 33.8946 51.9795 30.7634C51.9795 27.6322 54.2198 25.3054 57.325 25.3054H57.3163Z" fill="white"/>
<path d="M27.7005 29.0245H31.8783C33.0892 29.0245 33.8591 28.3499 33.8591 27.2859C33.8591 26.222 33.0806 25.5474 31.8783 25.5474H27.5275C27.441 25.5474 27.3545 25.6339 27.3545 25.7204V28.7218C27.3545 28.8948 27.5275 29.0159 27.7005 29.0159V29.0245Z" fill="white"/>
<path d="M27.7005 35.9702H32.0513C33.392 35.9702 34.205 35.2522 34.205 34.0672C34.205 33.012 33.4266 32.1643 32.0513 32.1643H27.7005C27.5275 32.1643 27.3545 32.2941 27.3545 32.5016V35.6328C27.3545 35.8058 27.5275 35.9702 27.7005 35.9702Z" fill="white"/>
<path fill-rule="evenodd" clip-rule="evenodd" d="M91.5075 24.7518C94.7857 24.7518 96.9395 27.338 96.9395 30.7633C96.9395 34.1886 94.829 36.7748 91.5075 36.7748C88.186 36.7748 86.0755 34.1886 86.0755 30.7633C86.0755 27.338 88.186 24.7518 91.5075 24.7518ZM89.224 22.4683C85.5998 23.4024 83.1865 26.6201 83.1865 30.7633C83.1865 35.7196 86.6377 39.3524 91.5508 39.3957C95.7286 39.3957 98.877 36.7316 99.6988 32.8306C101.039 26.525 95.3912 20.8508 89.224 22.4596V22.4683Z" fill="white"/>
<path d="M117.458 38.8507V26.1962L112.329 38.9372C112.329 38.9372 112.242 39.0237 112.199 39.0237H111.118C111.118 39.0237 110.988 38.9805 110.988 38.9372L105.816 26.1962V38.8507C105.816 38.9805 105.729 39.0583 105.599 39.0583H103.013C102.883 39.0583 102.797 38.9718 102.797 38.8507V22.598C102.797 22.4682 102.883 22.3904 103.013 22.3904H106.724C106.897 22.3904 107.027 22.4769 107.113 22.6412L111.637 34.0674L116.117 22.6412C116.161 22.4682 116.334 22.3904 116.507 22.3904H120.217C120.347 22.3904 120.434 22.4769 120.434 22.598V38.8507C120.434 38.9805 120.347 39.0583 120.217 39.0583H117.631C117.631 39.0583 117.458 38.9718 117.458 38.8507Z" fill="white"/>
<path d="M146.771 22.7191V38.7642C146.771 38.9372 146.901 39.0583 147.074 38.9372H158.068C158.241 38.9372 158.371 38.8075 158.371 38.6431V36.697C158.371 36.524 158.241 36.4029 158.068 36.4029H150.05C149.877 36.4029 149.747 36.2731 149.747 36.1088V32.0867C149.747 31.9137 149.877 31.7926 150.05 31.7926H157.895C158.068 31.7926 158.198 31.6628 158.198 31.4985V29.5523C158.198 29.3793 158.068 29.2582 157.895 29.2582H150.05C149.877 29.2582 149.747 29.1285 149.747 28.9641V25.2794C149.747 25.1064 149.877 24.9853 150.05 24.9853H158.068C158.241 24.9853 158.371 24.8555 158.371 24.6912V22.745C158.371 22.572 158.241 22.4509 158.068 22.4509H147.074C146.901 22.4509 146.771 22.5807 146.771 22.745V22.7191Z" fill="white"/>
<path fill-rule="evenodd" clip-rule="evenodd" d="M172.556 27.5892C172.556 25.9803 171.345 24.9683 169.667 24.9683H165.87C165.697 24.9683 165.567 25.098 165.567 25.2624V29.9592C165.567 30.1322 165.697 30.2533 165.87 30.2533H169.667C171.345 30.2533 172.556 29.2412 172.556 27.5892ZM172.167 38.8943L168.586 32.9693C168.543 32.8828 168.413 32.8395 168.327 32.8395H165.827C165.654 32.8395 165.524 32.9693 165.524 33.1336V38.7645C165.524 38.9375 165.394 39.0586 165.221 39.0586H162.895C162.722 39.0586 162.592 38.9289 162.592 38.7645V22.7194C162.592 22.5464 162.722 22.4253 162.895 22.4253H170.048C173.413 22.4253 175.61 24.5445 175.61 27.6324C175.61 30.383 173.888 31.9486 171.985 32.4157C171.769 32.4589 171.683 32.6665 171.769 32.8828C172.461 33.9813 174.615 37.3719 175.437 38.6002C175.566 38.8078 175.437 39.0673 175.177 39.0673H172.461C172.331 39.0673 172.245 39.024 172.158 38.8943H172.167Z" fill="white"/>
<path d="M195.703 22.7194V38.7646C195.703 38.9376 195.833 39.0587 196.006 39.1452H207.043C207.216 39.1452 207.346 39.0154 207.346 38.8511V36.8616C207.346 36.6886 207.216 36.5676 207.043 36.5676H198.981C198.808 36.5676 198.679 36.4378 198.679 36.2735V32.2081C198.679 32.0351 198.808 31.914 198.981 31.914H206.827C207 31.914 207.129 31.7843 207.129 31.6199V29.6305C207.129 29.4575 207 29.3364 206.827 29.3364H198.981C198.808 29.3364 198.679 29.2067 198.679 29.0423V25.3143C198.679 25.1413 198.808 25.0202 198.981 25.0202H207.043C207.216 25.0202 207.346 24.8905 207.346 24.7261V22.7367C207.346 22.5637 207.216 22.4426 207.043 22.4426H196.006C195.833 22.4426 195.703 22.5724 195.703 22.7367V22.7194Z" fill="white"/>
<path d="M139.444 26.1884V38.8429C139.444 38.9727 139.531 39.0505 139.617 39.0505H142.204C142.333 39.0505 142.42 38.964 142.42 38.8429V22.5902C142.42 22.4604 142.333 22.3826 142.204 22.3826H138.493C138.32 22.3826 138.147 22.4691 138.104 22.6334L133.623 34.0596L129.099 22.6334C129.013 22.4604 128.883 22.3826 128.71 22.3826H124.999C124.87 22.3826 124.783 22.4691 124.783 22.5902V38.8429C124.783 38.9727 124.87 39.0505 124.999 39.0505H127.586C127.715 39.0505 127.802 38.964 127.802 38.8429V26.1884L132.974 38.9294C132.974 38.9294 133.061 39.0159 133.104 39.0159H134.185C134.185 39.0159 134.315 38.9727 134.315 38.9294L139.444 26.1884Z" fill="white"/>
<path d="M98.114 64.1808L103.513 62.9838C102.408 58.7295 98.5353 55.5784 93.9619 55.5283C92.769 57.2113 91.8827 59.3113 91.4072 61.6553C92.1184 61.1861 92.963 60.8962 93.8534 60.8962C95.8576 60.8962 97.5843 62.2309 98.1119 64.1808H98.114Z" fill="white"/>
<path d="M103.513 68.0767L98.1139 66.8796C97.5863 68.8295 95.8595 70.1642 93.8554 70.1642C92.9649 70.1642 92.1203 69.8764 91.4092 69.4051C91.8847 71.7491 92.771 73.8492 93.9638 75.5321C98.5372 75.4821 102.41 72.331 103.515 68.0767H103.513Z" fill="white"/>
<path d="M88.302 57.21C85.6118 59.0013 83.835 62.0544 83.835 65.5308C83.835 69.0073 85.6118 72.0603 88.302 73.8517C89.5157 71.5119 90.2393 68.6423 90.2393 65.5308C90.2393 62.4194 89.5157 59.5498 88.302 57.21Z" fill="white"/>
<path d="M118.913 69.1903C118.913 69.1903 117.357 71.3675 114.325 71.3675C111.059 71.3675 108.494 68.8024 108.494 65.691C108.494 62.5795 111.059 60.0144 114.325 60.0144C117.357 60.0144 118.836 62.1916 118.836 62.1916L117.514 63.4345C117.514 63.4345 116.425 61.8788 114.325 61.8788C112.225 61.8788 110.515 63.5888 110.515 65.6889C110.515 67.7889 112.225 69.499 114.325 69.499C116.425 69.499 117.591 67.8661 117.591 67.8661L118.913 69.1882V69.1903Z" fill="white"/>
<path d="M123.111 63.3596C125.288 63.3596 127.078 65.1489 127.078 67.324C127.078 69.4991 125.288 71.2905 123.111 71.2905C120.934 71.2905 119.145 69.5012 119.145 67.324C119.145 65.1468 120.934 63.3596 123.111 63.3596ZM125.288 67.324C125.288 66.0019 124.356 65.0697 123.111 65.0697C121.866 65.0697 120.934 66.0019 120.934 67.324C120.934 68.6462 121.866 69.5784 123.111 69.5784C124.356 69.5784 125.288 68.6462 125.288 67.324Z" fill="white"/>
<path d="M128.166 63.5139H129.955V64.6025H130.033C130.033 64.6025 130.577 63.3596 132.133 63.3596C133.766 63.3596 134.387 64.6818 134.387 64.6818H134.464C134.464 64.6818 135.242 63.3596 136.952 63.3596C138.508 63.3596 139.596 64.5567 139.596 66.469V71.1341H137.807V66.7026C137.807 65.6911 137.263 65.1468 136.485 65.1468C135.474 65.1468 134.775 65.8475 134.775 66.9361V71.1341H132.986V66.6087C132.986 65.6911 132.441 65.1468 131.663 65.1468C130.652 65.1468 129.953 65.8475 129.953 66.9361V71.1341H128.164V63.5139H128.166Z" fill="white"/>
<path d="M140.918 63.5139H142.707V64.6025H142.785C142.785 64.6025 143.329 63.3596 144.885 63.3596C146.518 63.3596 147.139 64.6818 147.139 64.6818H147.216C147.216 64.6818 147.994 63.3596 149.704 63.3596C151.26 63.3596 152.348 64.5567 152.348 66.469V71.1341H150.559V66.7026C150.559 65.6911 150.015 65.1468 149.237 65.1468C148.225 65.1468 147.527 65.8475 147.527 66.9361V71.1341H145.738V66.6087C145.738 65.6911 145.193 65.1468 144.415 65.1468C143.404 65.1468 142.705 65.8475 142.705 66.9361V71.1341H140.916V63.5139H140.918Z" fill="white"/>
<path d="M160.668 69.9684C160.668 69.9684 159.656 71.2905 157.479 71.2905C155.302 71.2905 153.436 69.5012 153.436 67.324C153.436 65.1468 155.225 63.3596 157.402 63.3596C159.579 63.3596 161.135 65.0697 161.135 67.1697C161.135 67.6368 161.058 68.0247 161.058 68.0247H155.381C155.569 68.8798 156.313 69.6576 157.558 69.6576C158.881 69.6576 159.658 68.7088 159.658 68.7088L160.67 69.9684H160.668ZM159.189 66.5462C158.956 65.6911 158.334 65.0697 157.323 65.0697C156.234 65.0697 155.613 65.6911 155.379 66.5462H159.189Z" fill="white"/>
<path d="M162.221 63.5139H164.01V64.6025H164.087C164.087 64.6025 164.865 63.3596 166.264 63.3596H166.575V65.3032C166.575 65.3032 166.342 65.2261 165.954 65.2261C164.865 65.2261 164.01 66.0811 164.01 67.4033V71.1362H162.221V63.516V63.5139Z" fill="white"/>
<path d="M173.886 69.7348C173.886 69.7348 172.891 71.2905 170.697 71.2905C168.503 71.2905 166.73 69.5012 166.73 67.324C166.73 65.1468 168.52 63.3596 170.697 63.3596C172.874 63.3596 173.886 64.9154 173.886 64.9154L172.72 66.0811C172.72 66.0811 171.942 65.0697 170.699 65.0697C169.456 65.0697 168.522 66.0019 168.522 67.324C168.522 68.6462 169.454 69.5784 170.699 69.5784C171.944 69.5784 172.72 68.567 172.72 68.567L173.886 69.7327V69.7348Z" fill="white"/>
<path d="M181.349 69.9684C181.349 69.9684 180.338 71.2905 178.161 71.2905C175.984 71.2905 174.117 69.5012 174.117 67.324C174.117 65.1468 175.906 63.3596 178.084 63.3596C180.261 63.3596 181.817 65.0697 181.817 67.1697C181.817 67.6368 181.739 68.0247 181.739 68.0247H176.063C176.251 68.8798 176.995 69.6576 178.24 69.6576C179.562 69.6576 180.34 68.7088 180.34 68.7088L181.352 69.9684H181.349ZM179.873 66.5462C179.639 65.6911 179.018 65.0697 178.007 65.0697C176.918 65.0697 176.296 65.6911 176.063 66.5462H179.873Z" fill="white"/>
<path d="M26.3351 69.6404V62.8585H29.0092C30.4237 62.8585 31.3538 63.7014 31.3538 65.019C31.3538 66.3269 30.4237 67.1795 29.0092 67.1795H27.4493V69.6404H26.3351ZM27.4493 66.2107H28.9123C29.7067 66.2107 30.2202 65.7456 30.2202 65.019C30.2202 64.2827 29.7164 63.8273 28.922 63.8273H27.4493V66.2107ZM34.2034 69.6985C32.692 69.6985 31.6747 68.6812 31.6747 67.1601C31.6747 65.6487 32.692 64.6218 34.2034 64.6218C35.7148 64.6218 36.7321 65.6487 36.7321 67.1601C36.7321 68.6812 35.7148 69.6985 34.2034 69.6985ZM34.2034 68.8072C35.085 68.8072 35.6663 68.1193 35.6663 67.1601C35.6663 66.201 35.085 65.5131 34.2034 65.5131C33.3217 65.5131 32.7501 66.201 32.7501 67.1601C32.7501 68.1193 33.3217 68.8072 34.2034 68.8072ZM38.5755 69.6404L36.9575 64.6799H38.062L39.1955 68.4778L40.3291 64.6799H41.2882L42.3733 68.4778L43.5456 64.6799H44.6114L42.9643 69.6404H41.8405L40.7941 66.2688L39.709 69.6404H38.5755ZM47.3739 69.6985C45.814 69.6985 44.8355 68.6909 44.8355 67.1698C44.8355 65.639 45.814 64.6218 47.277 64.6218C48.7012 64.6218 49.6797 65.5422 49.6797 67.0342V67.3927H45.9303V67.4508C45.9303 68.284 46.4922 68.8459 47.3157 68.8459C47.9649 68.8459 48.4396 68.5262 48.5849 67.9837H49.6313C49.4569 68.9525 48.6043 69.6985 47.3739 69.6985ZM45.9594 66.6176H48.614C48.5268 65.8813 48.023 65.4647 47.2867 65.4647C46.6279 65.4647 46.0465 65.8909 45.9594 66.6176ZM50.5552 69.6404V64.6799H51.4756L51.5821 65.4259C51.834 65.019 52.2216 64.6799 53.0548 64.6799H53.297V65.6584H52.8416C51.9019 65.6584 51.6112 66.3851 51.6112 67.1504V69.6404H50.5552ZM56.154 69.6985C54.5942 69.6985 53.6157 68.6909 53.6157 67.1698C53.6157 65.639 54.5942 64.6218 56.0572 64.6218C57.4814 64.6218 58.4599 65.5422 58.4599 67.0342V67.3927H54.7105V67.4508C54.7105 68.284 55.2724 68.8459 56.0959 68.8459C56.745 68.8459 57.2198 68.5262 57.3651 67.9837H58.4114C58.2371 68.9525 57.3845 69.6985 56.154 69.6985ZM54.7395 66.6176H57.3942C57.307 65.8813 56.8032 65.4647 56.0668 65.4647C55.408 65.4647 54.8267 65.8909 54.7395 66.6176ZM61.4668 69.6985C60.1201 69.6985 59.1222 68.749 59.1222 67.1601C59.1222 65.6294 60.1201 64.6218 61.4668 64.6218C62.2419 64.6218 62.7747 64.9318 63.0751 65.3775V62.8585H64.1214V69.6404H63.2107L63.0945 68.8847C62.7651 69.3303 62.2516 69.6985 61.4668 69.6985ZM61.6412 68.8072C62.5132 68.8072 63.0848 68.1484 63.0848 67.1795C63.0848 66.1816 62.5132 65.5131 61.6412 65.5131C60.7692 65.5131 60.1976 66.1816 60.1976 67.1601C60.1976 68.1484 60.7692 68.8072 61.6412 68.8072ZM70.2592 69.6985C69.4745 69.6985 68.9416 69.3691 68.6413 68.9137L68.525 69.6404H67.6046V62.8585H68.6606V65.4065C68.9804 64.9802 69.4938 64.6218 70.2689 64.6218C71.6156 64.6218 72.6135 65.5615 72.6135 67.1601C72.6135 68.6812 71.6156 69.6985 70.2592 69.6985ZM70.0848 68.8072C70.9568 68.8072 71.5381 68.1484 71.5381 67.1601C71.5381 66.1816 70.9568 65.5131 70.0848 65.5131C69.2226 65.5131 68.6413 66.1816 68.6413 67.1504C68.6413 68.1387 69.2226 68.8072 70.0848 68.8072ZM73.1075 71.5781V70.6577H73.8438C74.2507 70.6577 74.3476 70.5608 74.4929 70.1539L74.677 69.6598L72.7684 64.6799H73.8923L75.2583 68.4487L76.6147 64.6799H77.7289L75.4812 70.4251C75.1711 71.2293 74.958 71.5781 74.2313 71.5781H73.1075Z" fill="white"/>
</svg>
